<svg width="1170" height="754" viewBox="0 0 1170 754" fill="none" xmlns="http://www.w3.org/2000/svg">
<g opacity="0.3" filter="url(#filter0_d)">
<path d="M192.454 570.952L214.5 596.384L236.546 570.952L253 589.933L230.954 615.366L253 640.799L236.546 659.781L214.5 634.348L192.454 659.781L176 640.799L198.046 615.366L176 589.933L192.454 570.952Z" fill="#D90047"/>
</g>
<g opacity="0.3" filter="url(#filter1_d)">
<path d="M1149.5 614C1149.5 631.844 1134.83 646.5 1116.5 646.5C1098.17 646.5 1083.5 631.844 1083.5 614C1083.5 596.156 1098.17 581.5 1116.5 581.5C1134.83 581.5 1149.5 596.156 1149.5 614Z" stroke="#FF50D8" stroke-width="19"/>
</g>
<g opacity="0.3" filter="url(#filter2_d)">
<path d="M115.752 280.259L156.613 234.179L168.96 294.516L115.752 280.259Z" stroke="#31F674" stroke-width="14"/>
</g>
<g opacity="0.3" filter="url(#filter3_d)">
<rect x="914.619" y="42.1185" width="60.7378" height="60.7378" transform="rotate(-30.1425 914.619 42.1185)" stroke="#FF5C00" stroke-width="17"/>
</g>
<g opacity="0.49">
<circle cx="1158.5" cy="455.5" r="11.5" fill="#31F674"/>
<circle cx="1158.5" cy="455.5" r="8.625" fill="#212121"/>
</g>
<g opacity="0.49">
<circle cx="997.5" cy="245.5" r="11.5" fill="#31F674"/>
<circle cx="997.5" cy="245.5" r="8.625" fill="#212121"/>
</g>
<g opacity="0.49">
<circle cx="944.5" cy="613.5" r="11.5" fill="#31F674"/>
<circle cx="944.5" cy="613.5" r="8.625" fill="#212121"/>
</g>
<g opacity="0.49">
<circle cx="72.5" cy="732.5" r="21.5" fill="#31F674"/>
<circle cx="72.5" cy="732.5" r="16.125" fill="#212121"/>
</g>
<g opacity="0.49">
<circle cx="11.5" cy="320.5" r="11.5" fill="#31F674"/>
<circle cx="11.5" cy="320.5" r="8.625" fill="#212121"/>
</g>
<g opacity="0.49">
<circle r="5.5" transform="matrix(-1 0 0 1 138.5 101.5)" fill="#31F674"/>
<circle r="4.125" transform="matrix(-1 0 0 1 138.5 101.5)" fill="#212121"/>
</g>
<g opacity="0.49">
<circle cx="1110" cy="15" r="9" fill="#31F674"/>
<circle cx="1110" cy="15" r="6.75" fill="#212121"/>
</g>
<defs>
<filter id="filter0_d" x="172" y="570.952" width="85" height="96.8291" filterUnits="userSpaceOnUse" color-interpolation-filters="sRGB">
<feFlood flood-opacity="0" result="BackgroundImageFix"/>
<feColorMatrix in="SourceAlpha" type="matrix" values="0 0 0 0 0 0 0 0 0 0 0 0 0 0 0 0 0 0 127 0"/>
<feOffset dy="4"/>
<feGaussianBlur stdDeviation="2"/>
<feColorMatrix type="matrix" values="0 0 0 0 0 0 0 0 0 0 0 0 0 0 0 0 0 0 0.25 0"/>
<feBlend mode="normal" in2="BackgroundImageFix" result="effect1_dropShadow"/>
<feBlend mode="normal" in="SourceGraphic" in2="effect1_dropShadow" result="shape"/>
</filter>
<filter id="filter1_d" x="1070" y="572" width="93" height="92" filterUnits="userSpaceOnUse" color-interpolation-filters="sRGB">
<feFlood flood-opacity="0" result="BackgroundImageFix"/>
<feColorMatrix in="SourceAlpha" type="matrix" values="0 0 0 0 0 0 0 0 0 0 0 0 0 0 0 0 0 0 127 0"/>
<feOffset dy="4"/>
<feGaussianBlur stdDeviation="2"/>
<feColorMatrix type="matrix" values="0 0 0 0 0 0 0 0 0 0 0 0 0 0 0 0 0 0 0.25 0"/>
<feBlend mode="normal" in2="BackgroundImageFix" result="effect1_dropShadow"/>
<feBlend mode="normal" in="SourceGraphic" in2="effect1_dropShadow" result="shape"/>
</filter>
<filter id="filter2_d" x="99" y="209" width="103.209" height="103.209" filterUnits="userSpaceOnUse" color-interpolation-filters="sRGB">
<feFlood flood-opacity="0" result="BackgroundImageFix"/>
<feColorMatrix in="SourceAlpha" type="matrix" values="0 0 0 0 0 0 0 0 0 0 0 0 0 0 0 0 0 0 127 0"/>
<feOffset dy="4"/>
<feGaussianBlur stdDeviation="2"/>
<feColorMatrix type="matrix" values="0 0 0 0 0 0 0 0 0 0 0 0 0 0 0 0 0 0 0.25 0"/>
<feBlend mode="normal" in2="BackgroundImageFix" result="effect1_dropShadow"/>
<feBlend mode="normal" in="SourceGraphic" in2="effect1_dropShadow" result="shape"/>
</filter>
<filter id="filter3_d" x="899" y="0" width="114.262" height="114.262" filterUnits="userSpaceOnUse" color-interpolation-filters="sRGB">
<feFlood flood-opacity="0" result="BackgroundImageFix"/>
<feColorMatrix in="SourceAlpha" type="matrix" values="0 0 0 0 0 0 0 0 0 0 0 0 0 0 0 0 0 0 127 0"/>
<feOffset dy="4"/>
<feGaussianBlur stdDeviation="2"/>
<feColorMatrix type="matrix" values="0 0 0 0 0 0 0 0 0 0 0 0 0 0 0 0 0 0 0.25 0"/>
<feBlend mode="normal" in2="BackgroundImageFix" result="effect1_dropShadow"/>
<feBlend mode="normal" in="SourceGraphic" in2="effect1_dropShadow" result="shape"/>
</filter>
</defs>
</svg>
