<svg width="140" height="39" viewBox="0 0 140 39" fill="none" xmlns="http://www.w3.org/2000/svg">
<g filter="url(#filter0_d)">
<path d="M116.321 20.2607L119.073 15.0777L121.78 20.2607H116.327H116.321ZM126.829 29.9513H135.091L119.078 0.384529L103.015 29.9531H111.274L113.428 25.8116H124.675L126.829 29.9513ZM85.2439 10.5296L69.411 0.384529V29.9531H76.5708V13.4347L85.1547 18.9856L94.0098 13.3924V29.9494H101.177V0.384529L85.2439 10.5296ZM25.7133 22.0361C22.2077 25.4951 16.5482 25.4951 13.0426 22.0361C9.55366 18.5698 9.55738 12.9545 13.0574 9.49373C16.5556 6.03661 22.2225 6.0403 25.7133 9.50662C29.2004 12.9674 29.2004 18.5753 25.7133 22.0361V22.0361ZM51.3797 -3.58364e-06C42.8923 0.211582 36.18 7.19757 36.3917 15.6131C36.5997 24.0232 43.6555 30.6725 52.1447 30.4646C59.778 30.2769 66.1171 24.566 67.0306 17.0519L67.038 16.9931L67.0436 16.9287L67.0492 16.8679L67.0696 16.6968V16.6876V16.6251L67.077 16.5644V16.5036V16.4448L67.0826 16.3215V16.2608L67.0956 16.0823L67.103 15.9664L67.1123 15.7143V15.6536V15.5892V15.2341V14.8386V14.6951V14.6859C67.0882 14.0529 67.0288 13.4255 66.9266 12.8018H53.2569V18.7152H60.0157C59.791 19.2395 59.5106 19.7455 59.1875 20.2183C58.8403 20.6452 58.4727 21.0573 58.079 21.4474C56.3912 23.0941 54.1185 24.025 51.7474 24.0379C49.3855 24.0342 47.1221 23.0996 45.4566 21.4474C43.7557 19.8209 42.8069 17.5726 42.8236 15.2341C42.8273 10.3309 46.8436 6.35675 51.7901 6.36227C54.1575 6.36411 56.4321 7.29509 58.1087 8.95465C58.3724 9.21407 58.6156 9.49006 58.844 9.7826H66.1394C65.211 7.38708 63.6884 5.26571 61.7146 3.60614C59.1021 1.4075 55.8175 0.139828 52.388 0.0110366H52.3768C52.1819 0.00367711 51.985 -3.58364e-06 51.7845 -3.58364e-06H51.7715H51.3853H51.3797ZM19.3779 0.522521C10.885 0.522521 4 7.34476 4 15.764C4 24.1778 10.885 31 19.3779 31C27.8709 31 34.7559 24.1778 34.7559 15.764C34.7559 7.34476 27.8709 0.522521 19.3779 0.522521" fill="#31F674"/>
</g>
<defs>
<filter id="filter0_d" x="0" y="0" width="139.091" height="39" filterUnits="userSpaceOnUse" color-interpolation-filters="sRGB">
<feFlood flood-opacity="0" result="BackgroundImageFix"/>
<feColorMatrix in="SourceAlpha" type="matrix" values="0 0 0 0 0 0 0 0 0 0 0 0 0 0 0 0 0 0 127 0"/>
<feOffset dy="4"/>
<feGaussianBlur stdDeviation="2"/>
<feColorMatrix type="matrix" values="0 0 0 0 0 0 0 0 0 0 0 0 0 0 0 0 0 0 0.25 0"/>
<feBlend mode="normal" in2="BackgroundImageFix" result="effect1_dropShadow"/>
<feBlend mode="normal" in="SourceGraphic" in2="effect1_dropShadow" result="shape"/>
</filter>
</defs>
</svg>
