<svg width="70" height="69" viewBox="0 0 70 69" fill="none" xmlns="http://www.w3.org/2000/svg">
<g filter="url(#filter0_d)">
<path d="M43.2633 43.0002C43.0717 43.0003 42.883 42.9535 42.7136 42.8641L34.7171 38.6594L26.72 42.8641C26.525 42.9667 26.3051 43.0126 26.0853 42.9967C25.8655 42.9809 25.6545 42.9038 25.4762 42.7744C25.2978 42.6449 25.1593 42.4681 25.0762 42.264C24.9931 42.0599 24.9687 41.8366 25.0058 41.6194L26.5331 32.7138L20.0634 26.4073C19.9056 26.2535 19.7941 26.0586 19.7413 25.8447C19.6885 25.6307 19.6966 25.4063 19.7647 25.1968C19.8329 24.9872 19.9582 24.8009 20.1267 24.6589C20.2951 24.5169 20.5 24.4248 20.718 24.3932L29.6593 23.0931L33.6576 14.9916C34.0567 14.1841 35.3775 14.1841 35.7767 14.9916L39.7749 23.0931L48.7156 24.3932C48.9337 24.4248 49.1385 24.5169 49.307 24.6589C49.4754 24.8009 49.6008 24.9872 49.6689 25.1968C49.737 25.4063 49.7452 25.6307 49.6924 25.8447C49.6396 26.0586 49.528 26.2535 49.3703 26.4073L42.9005 32.7138L44.4278 41.6194C44.4567 41.7889 44.4483 41.9627 44.4031 42.1287C44.3579 42.2946 44.277 42.4487 44.1662 42.5801C44.0553 42.7116 43.9171 42.8173 43.7611 42.8899C43.6052 42.9624 43.4353 43.0001 43.2633 43.0002L43.2633 43.0002ZM23.4266 26.3866L28.6274 31.4565C28.7644 31.5902 28.8668 31.7552 28.926 31.9372C28.9852 32.1192 28.9993 32.3129 28.9671 32.5016L27.7392 39.6595L34.1674 36.2795C34.3367 36.1898 34.5254 36.1428 34.7171 36.1428C34.9087 36.1428 35.0974 36.1898 35.2668 36.2795L41.6944 39.6595L40.467 32.5016C40.4349 32.3129 40.449 32.1192 40.5082 31.9372C40.5673 31.7552 40.6698 31.5902 40.8068 31.4565L46.007 26.3866L38.8203 25.3414C38.6308 25.3139 38.4508 25.2407 38.2959 25.1282C38.141 25.0157 38.0157 24.8671 37.9309 24.6954L34.7171 18.1836L31.5033 24.6955C31.4185 24.8672 31.2932 25.0157 31.1383 25.1283C30.9833 25.2408 30.8034 25.314 30.6139 25.3415L23.4266 26.3866Z" fill="#31F674"/>
<path d="M34.7171 51.4362C22.9276 51.4362 13.3363 41.8444 13.3363 30.0549C13.3363 18.2655 22.9276 8.6748 34.7171 8.6748C46.5065 8.6748 56.0978 18.2655 56.0978 30.055C56.0978 41.8444 46.5065 51.4362 34.7171 51.4362ZM34.7171 11.0372C30.9556 11.0372 27.2786 12.1527 24.151 14.2424C21.0235 16.3322 18.5859 19.3025 17.1464 22.7777C15.707 26.2528 15.3304 30.0768 16.0643 33.766C16.7982 37.4552 18.6095 40.8439 21.2693 43.5036C23.9291 46.1634 27.3179 47.9746 31.0072 48.7084C34.6964 49.4422 38.5203 49.0654 41.9955 47.6259C45.4706 46.1864 48.4408 43.7487 50.5305 40.621C52.6201 37.4934 53.7354 33.8164 53.7353 30.0549C53.7294 25.0128 51.7238 20.179 48.1584 16.6137C44.5931 13.0485 39.7591 11.043 34.7171 11.0373V11.0372Z" fill="#31F674"/>
<path d="M40.606 60.1111C39.8716 60.1106 39.1497 59.9207 38.51 59.5598L35.6509 57.9528C35.3656 57.7929 35.0441 57.7088 34.7171 57.7088C34.39 57.7088 34.0685 57.7929 33.7833 57.9528L30.9224 59.5598C29.9995 60.0811 28.9153 60.2395 27.8819 60.0039C26.8484 59.7684 25.9399 59.1559 25.334 58.2862L23.4514 55.5961C23.2618 55.331 23.0085 55.1179 22.7148 54.9766C22.4212 54.8352 22.0966 54.7702 21.7712 54.7874L18.4928 54.9893C17.4354 55.0595 16.39 54.732 15.5618 54.071C14.7336 53.41 14.1824 52.4633 14.0163 51.4167L13.4874 48.1775C13.4358 47.854 13.3013 47.5495 13.0969 47.2935C12.8925 47.0376 12.6252 46.839 12.3212 46.7171L9.28499 45.4851C8.30136 45.089 7.501 44.34 7.04066 43.3847C6.58031 42.4295 6.49312 41.3368 6.79617 40.3206L7.72422 37.1737C7.81542 36.8606 7.82525 36.5295 7.75278 36.2115C7.68032 35.8936 7.52795 35.5994 7.31009 35.3568L5.1062 32.9181C4.39448 32.1347 4.00011 31.1142 4 30.0557C3.99989 28.9972 4.39406 27.9766 5.10563 27.193L7.31067 24.7532C7.52836 24.5102 7.68061 24.2159 7.75307 23.8978C7.82552 23.5797 7.81579 23.2484 7.7248 22.9352L6.79617 19.7882C6.49338 18.7721 6.58069 17.6795 7.041 16.7243C7.50132 15.7691 8.30152 15.02 9.28499 14.6237L12.3241 13.3906C12.6263 13.2668 12.8918 13.0679 13.0956 12.8127C13.2994 12.5575 13.4347 12.2545 13.4886 11.9325L14.0181 8.6921C14.1838 7.6453 14.735 6.69832 15.5634 6.03725C16.3919 5.37618 17.4375 5.04882 18.495 5.11949L21.7734 5.32252C22.0993 5.34337 22.4251 5.27979 22.7192 5.13794C23.0133 4.99608 23.2659 4.78074 23.4525 4.51273L25.3346 1.82492C25.9402 0.954461 26.849 0.3415 27.883 0.106139C28.9169 -0.129222 30.0015 0.0299806 30.9242 0.552555L33.7827 2.15832C34.0686 2.31719 34.3903 2.40056 34.7174 2.40056C35.0445 2.40056 35.3662 2.31719 35.6521 2.15832L38.5111 0.551388C39.4339 0.0299228 40.518 -0.128658 41.5515 0.106645C42.585 0.341948 43.4935 0.954219 44.0996 1.82377L45.9829 4.51392C46.1703 4.78076 46.423 4.99516 46.7168 5.13671C47.0106 5.27826 47.3358 5.34224 47.6613 5.32257L50.9409 5.1207C51.9971 5.05547 53.0399 5.38486 53.8671 6.04498C54.6942 6.7051 55.2466 7.6489 55.4173 8.6933L55.9467 11.9337C56.0005 12.2559 56.1357 12.5591 56.3395 12.8145C56.5433 13.0698 56.8089 13.2689 57.1112 13.3929L60.1485 14.6249C61.1324 15.021 61.933 15.7702 62.3935 16.7257C62.854 17.6812 62.9411 18.7742 62.6379 19.7906L61.7099 22.9364C61.6186 23.2494 61.6086 23.5805 61.681 23.8984C61.7534 24.2164 61.9056 24.5106 62.1234 24.7532L64.3273 27.1919C65.0389 27.9754 65.4332 28.9959 65.4333 30.0543C65.4334 31.1128 65.0393 32.1333 64.3279 32.917L62.1241 35.3568C61.906 35.5995 61.7535 35.8939 61.681 36.212C61.6084 36.5301 61.6182 36.8615 61.7094 37.1748L62.6374 40.3217C62.9406 41.3379 62.8535 42.4307 62.3931 43.3859C61.9327 44.3412 61.1323 45.0902 60.1486 45.4862L57.1101 46.7194C56.8077 46.8433 56.5419 47.0423 56.338 47.2977C56.1341 47.5531 55.9988 47.8563 55.945 48.1787L55.4161 51.4179C55.2466 52.463 54.6942 53.4077 53.8666 54.0681C53.039 54.7284 51.9952 55.0572 50.9385 54.9905L47.6612 54.7886C47.3351 54.7681 47.0093 54.8318 46.7149 54.9737C46.4206 55.1155 46.1677 55.3306 45.9805 55.5984L44.0996 58.285C43.7076 58.8485 43.1852 59.3089 42.5769 59.6268C41.9686 59.9448 41.2924 60.1109 40.606 60.1111V60.1111ZM34.7171 55.3492C35.4494 55.3482 36.1698 55.5353 36.8091 55.8926L39.6676 57.4995C40.0796 57.7332 40.5642 57.8045 41.0261 57.6993C41.4879 57.5941 41.8938 57.3199 42.1639 56.9308L44.0454 54.243C44.4673 53.6467 45.034 53.1676 45.692 52.8506C46.3501 52.5336 47.0779 52.3891 47.8072 52.4307L51.0844 52.6326C51.5568 52.6644 52.0241 52.5184 52.3942 52.2231C52.7644 51.9279 53.0107 51.5049 53.0847 51.0372L53.6136 47.798C53.734 47.0762 54.0368 46.3971 54.4932 45.8252C54.9497 45.2532 55.5447 44.8074 56.2218 44.5299L59.2598 43.2968C59.6991 43.12 60.0566 42.7856 60.2623 42.3591C60.468 41.9326 60.507 41.4446 60.3718 40.9908L59.4437 37.8439C59.2394 37.1424 59.2174 36.4005 59.3796 35.6882C59.5419 34.9758 59.8832 34.3167 60.3712 33.773L62.5745 31.3342L62.5751 31.3331C62.8928 30.9829 63.0687 30.527 63.0686 30.0543C63.0685 29.5815 62.8924 29.1257 62.5745 28.7757L60.3712 26.3382C59.8833 25.7945 59.5421 25.1353 59.3799 24.4229C59.2177 23.7106 59.2399 22.9687 59.4443 22.2673L60.3724 19.1215C60.5077 18.6675 60.4687 18.1792 60.2629 17.7525C60.0571 17.3257 59.6993 16.9912 59.2598 16.8144L56.223 15.5824C55.5459 15.305 54.9509 14.8591 54.4946 14.2872C54.0382 13.7152 53.7355 13.0361 53.6154 12.3143L53.0859 9.07397C53.0077 8.60848 52.7605 8.18823 52.3915 7.89381C52.0226 7.59939 51.558 7.45153 51.0868 7.47859L47.8072 7.68046C47.078 7.72485 46.3496 7.5817 45.6915 7.26466C45.0334 6.94762 44.4675 6.46727 44.0477 5.86941L42.1645 3.17921C41.8936 2.79118 41.4879 2.51795 41.0264 2.41281C40.565 2.30767 40.081 2.37815 39.6687 2.61052L36.8085 4.21861C36.1691 4.57491 35.4493 4.76194 34.7174 4.76194C33.9854 4.76194 33.2656 4.57491 32.6262 4.21861L29.7665 2.61167C29.3543 2.3783 28.8698 2.30725 28.408 2.41245C27.9461 2.51764 27.5402 2.7915 27.2697 3.18037L25.3882 5.86702C24.9692 6.46596 24.4034 6.94725 23.745 7.26478C23.0866 7.58231 22.3577 7.72543 21.6282 7.68043L18.3486 7.4774C17.8774 7.45066 17.4129 7.59863 17.0441 7.893C16.6752 8.18736 16.4279 8.60743 16.3494 9.07279L15.8199 12.3132C15.6996 13.0347 15.3969 13.7136 14.9405 14.2853C14.4841 14.8571 13.8893 15.3027 13.2123 15.5801L10.1738 16.8132C9.73454 16.9903 9.37712 17.325 9.17146 17.7516C8.9658 18.1783 8.9267 18.6664 9.0618 19.1203L9.99041 22.2661C10.1946 22.9675 10.2166 23.7094 10.0544 24.4216C9.89226 25.1339 9.55122 25.7931 9.06353 26.337L6.85847 28.7768C6.54085 29.1267 6.36489 29.5824 6.36489 30.055C6.36489 30.5276 6.54085 30.9832 6.85847 31.3331L9.06236 33.7718C9.55036 34.3154 9.89165 34.9746 10.0539 35.6869C10.2162 36.3993 10.1942 37.1412 9.98982 37.8427L9.06178 40.9896C8.92656 41.4435 8.96561 41.9314 9.1713 42.3579C9.37699 42.7845 9.7345 43.1189 10.1738 43.2956L13.2105 44.5276C13.8876 44.8055 14.4825 45.2516 14.9389 45.8237C15.3954 46.3958 15.6982 47.075 15.8187 47.7968L16.3476 51.036C16.4244 51.5022 16.6713 51.9234 17.0405 52.2181C17.4098 52.5127 17.8752 52.66 18.3468 52.6314L21.6264 52.4296C22.3559 52.3831 23.0851 52.5253 23.7436 52.8425C24.4022 53.1597 24.968 53.6413 25.3864 54.2407L27.269 56.9308C27.5392 57.3198 27.9451 57.5939 28.4069 57.6991C28.8688 57.8043 29.3533 57.7331 29.7653 57.4995L32.6256 55.8926C33.2647 55.5352 33.9849 55.3481 34.7171 55.3492V55.3492Z" fill="#31F674"/>
</g>
<defs>
<filter id="filter0_d" x="0" y="0" width="69.4333" height="68.1111" filterUnits="userSpaceOnUse" color-interpolation-filters="sRGB">
<feFlood flood-opacity="0" result="BackgroundImageFix"/>
<feColorMatrix in="SourceAlpha" type="matrix" values="0 0 0 0 0 0 0 0 0 0 0 0 0 0 0 0 0 0 127 0"/>
<feOffset dy="4"/>
<feGaussianBlur stdDeviation="2"/>
<feColorMatrix type="matrix" values="0 0 0 0 0 0 0 0 0 0 0 0 0 0 0 0 0 0 0.25 0"/>
<feBlend mode="normal" in2="BackgroundImageFix" result="effect1_dropShadow"/>
<feBlend mode="normal" in="SourceGraphic" in2="effect1_dropShadow" result="shape"/>
</filter>
</defs>
</svg>
