<svg width="1170" height="754" viewBox="0 0 1170 754" fill="none" xmlns="http://www.w3.org/2000/svg">
<g filter="url(#filter0_d)">
<path d="M342 268L381 375L276 402L342 268Z" fill="#88E4A8"/>
<path d="M342 268L381 375L276 402L342 268Z" fill="#88E4A8"/>
</g>
<g filter="url(#filter1_d)">
<path d="M466.659 592.666L571.903 549.149L603.346 652.905L466.659 592.666Z" fill="#4C9A66" fill-opacity="0.45"/>
<path d="M466.659 592.666L571.903 549.149L603.346 652.905L466.659 592.666Z" fill="#4C9A66" fill-opacity="0.45"/>
</g>
<g filter="url(#filter2_d)">
<path d="M788.278 370.526L864.258 403.951L825.526 472.827L788.278 370.526Z" fill="#31F674" fill-opacity="0.61"/>
<path d="M788.278 370.526L864.258 403.951L825.526 472.827L788.278 370.526Z" fill="#31F674" fill-opacity="0.61"/>
</g>
<g filter="url(#filter3_d)">
<path d="M754.082 178.671L867.53 168.694L866.434 277.104L754.082 178.671Z" fill="#88E4A7"/>
<path d="M754.082 178.671L867.53 168.694L866.434 277.104L754.082 178.671Z" fill="#88E4A7"/>
</g>
<g filter="url(#filter4_d)">
<path d="M416.053 93.7127L483.254 109.991L461.583 172.145L416.053 93.7127Z" fill="#31F674"/>
<path d="M416.053 93.7127L483.254 109.991L461.583 172.145L416.053 93.7127Z" fill="#31F674"/>
</g>
<g filter="url(#filter5_d)">
<path d="M605.042 161.917L626.818 218.324L584.318 250.207L605.042 161.917Z" fill="#48D678"/>
<path d="M605.042 161.917L626.818 218.324L584.318 250.207L605.042 161.917Z" fill="#48D678"/>
</g>
<path d="M451.754 478.445C451.582 480.266 450.91 481.688 449.738 482.711C448.566 483.727 447.008 484.234 445.062 484.234C443.703 484.234 442.504 483.914 441.465 483.273C440.434 482.625 439.637 481.707 439.074 480.52C438.512 479.332 438.219 477.953 438.195 476.383V474.789C438.195 473.18 438.48 471.762 439.051 470.535C439.621 469.309 440.438 468.363 441.5 467.699C442.57 467.035 443.805 466.703 445.203 466.703C447.086 466.703 448.602 467.215 449.75 468.238C450.898 469.262 451.566 470.707 451.754 472.574H448.801C448.66 471.348 448.301 470.465 447.723 469.926C447.152 469.379 446.312 469.105 445.203 469.105C443.914 469.105 442.922 469.578 442.227 470.523C441.539 471.461 441.188 472.84 441.172 474.66V476.172C441.172 478.016 441.5 479.422 442.156 480.391C442.82 481.359 443.789 481.844 445.062 481.844C446.227 481.844 447.102 481.582 447.688 481.059C448.273 480.535 448.645 479.664 448.801 478.445H451.754ZM453.605 477.543C453.605 476.301 453.852 475.184 454.344 474.191C454.836 473.191 455.527 472.426 456.418 471.895C457.309 471.355 458.332 471.086 459.488 471.086C461.199 471.086 462.586 471.637 463.648 472.738C464.719 473.84 465.297 475.301 465.383 477.121L465.395 477.789C465.395 479.039 465.152 480.156 464.668 481.141C464.191 482.125 463.504 482.887 462.605 483.426C461.715 483.965 460.684 484.234 459.512 484.234C457.723 484.234 456.289 483.641 455.211 482.453C454.141 481.258 453.605 479.668 453.605 477.684V477.543ZM456.453 477.789C456.453 479.094 456.723 480.117 457.262 480.859C457.801 481.594 458.551 481.961 459.512 481.961C460.473 481.961 461.219 481.586 461.75 480.836C462.289 480.086 462.559 478.988 462.559 477.543C462.559 476.262 462.281 475.246 461.727 474.496C461.18 473.746 460.434 473.371 459.488 473.371C458.559 473.371 457.82 473.742 457.273 474.484C456.727 475.219 456.453 476.32 456.453 477.789ZM470.48 471.32L470.562 472.645C471.453 471.605 472.672 471.086 474.219 471.086C475.914 471.086 477.074 471.734 477.699 473.031C478.621 471.734 479.918 471.086 481.59 471.086C482.988 471.086 484.027 471.473 484.707 472.246C485.395 473.02 485.746 474.16 485.762 475.668V484H482.914V475.75C482.914 474.945 482.738 474.355 482.387 473.98C482.035 473.605 481.453 473.418 480.641 473.418C479.992 473.418 479.461 473.594 479.047 473.945C478.641 474.289 478.355 474.742 478.191 475.305L478.203 484H475.355V475.656C475.316 474.164 474.555 473.418 473.07 473.418C471.93 473.418 471.121 473.883 470.645 474.812V484H467.797V471.32H470.48ZM488.152 477.543C488.152 476.301 488.398 475.184 488.891 474.191C489.383 473.191 490.074 472.426 490.965 471.895C491.855 471.355 492.879 471.086 494.035 471.086C495.746 471.086 497.133 471.637 498.195 472.738C499.266 473.84 499.844 475.301 499.93 477.121L499.941 477.789C499.941 479.039 499.699 480.156 499.215 481.141C498.738 482.125 498.051 482.887 497.152 483.426C496.262 483.965 495.23 484.234 494.059 484.234C492.27 484.234 490.836 483.641 489.758 482.453C488.688 481.258 488.152 479.668 488.152 477.684V477.543ZM491 477.789C491 479.094 491.27 480.117 491.809 480.859C492.348 481.594 493.098 481.961 494.059 481.961C495.02 481.961 495.766 481.586 496.297 480.836C496.836 480.086 497.105 478.988 497.105 477.543C497.105 476.262 496.828 475.246 496.273 474.496C495.727 473.746 494.98 473.371 494.035 473.371C493.105 473.371 492.367 473.742 491.82 474.484C491.273 475.219 491 476.32 491 477.789ZM512.797 480.391L515.48 471.32H518.422L514.027 484H511.555L507.125 471.32H510.078L512.797 480.391ZM519.488 477.543C519.488 476.301 519.734 475.184 520.227 474.191C520.719 473.191 521.41 472.426 522.301 471.895C523.191 471.355 524.215 471.086 525.371 471.086C527.082 471.086 528.469 471.637 529.531 472.738C530.602 473.84 531.18 475.301 531.266 477.121L531.277 477.789C531.277 479.039 531.035 480.156 530.551 481.141C530.074 482.125 529.387 482.887 528.488 483.426C527.598 483.965 526.566 484.234 525.395 484.234C523.605 484.234 522.172 483.641 521.094 482.453C520.023 481.258 519.488 479.668 519.488 477.684V477.543ZM522.336 477.789C522.336 479.094 522.605 480.117 523.145 480.859C523.684 481.594 524.434 481.961 525.395 481.961C526.355 481.961 527.102 481.586 527.633 480.836C528.172 480.086 528.441 478.988 528.441 477.543C528.441 476.262 528.164 475.246 527.609 474.496C527.062 473.746 526.316 473.371 525.371 473.371C524.441 473.371 523.703 473.742 523.156 474.484C522.609 475.219 522.336 476.32 522.336 477.789ZM538.895 481.961C539.605 481.961 540.195 481.754 540.664 481.34C541.133 480.926 541.383 480.414 541.414 479.805H544.098C544.066 480.594 543.82 481.332 543.359 482.02C542.898 482.699 542.273 483.238 541.484 483.637C540.695 484.035 539.844 484.234 538.93 484.234C537.156 484.234 535.75 483.66 534.711 482.512C533.672 481.363 533.152 479.777 533.152 477.754V477.461C533.152 475.531 533.668 473.988 534.699 472.832C535.73 471.668 537.137 471.086 538.918 471.086C540.426 471.086 541.652 471.527 542.598 472.41C543.551 473.285 544.051 474.438 544.098 475.867H541.414C541.383 475.141 541.133 474.543 540.664 474.074C540.203 473.605 539.613 473.371 538.895 473.371C537.973 473.371 537.262 473.707 536.762 474.379C536.262 475.043 536.008 476.055 536 477.414V477.871C536 479.246 536.246 480.273 536.738 480.953C537.238 481.625 537.957 481.961 538.895 481.961ZM551.832 484.234C550.027 484.234 548.562 483.668 547.438 482.535C546.32 481.395 545.762 479.879 545.762 477.988V477.637C545.762 476.371 546.004 475.242 546.488 474.25C546.98 473.25 547.668 472.473 548.551 471.918C549.434 471.363 550.418 471.086 551.504 471.086C553.23 471.086 554.562 471.637 555.5 472.738C556.445 473.84 556.918 475.398 556.918 477.414V478.562H548.633C548.719 479.609 549.066 480.438 549.676 481.047C550.293 481.656 551.066 481.961 551.996 481.961C553.301 481.961 554.363 481.434 555.184 480.379L556.719 481.844C556.211 482.602 555.531 483.191 554.68 483.613C553.836 484.027 552.887 484.234 551.832 484.234ZM551.492 473.371C550.711 473.371 550.078 473.645 549.594 474.191C549.117 474.738 548.812 475.5 548.68 476.477H554.105V476.266C554.043 475.312 553.789 474.594 553.344 474.109C552.898 473.617 552.281 473.371 551.492 473.371ZM555.336 469.246V469.375H553.051L551.293 467.547L549.547 469.375H547.285V469.223L550.461 465.988H552.137L555.336 469.246ZM567.758 471.32L567.84 472.785C568.777 471.652 570.008 471.086 571.531 471.086C574.172 471.086 575.516 472.598 575.562 475.621V484H572.715V475.785C572.715 474.98 572.539 474.387 572.188 474.004C571.844 473.613 571.277 473.418 570.488 473.418C569.34 473.418 568.484 473.938 567.922 474.977V484H565.074V471.32H567.758ZM586.156 482.758C585.32 483.742 584.133 484.234 582.594 484.234C581.219 484.234 580.176 483.832 579.465 483.027C578.762 482.223 578.41 481.059 578.41 479.535V471.32H581.258V479.5C581.258 481.109 581.926 481.914 583.262 481.914C584.645 481.914 585.578 481.418 586.062 480.426V471.32H588.91V484H586.227L586.156 482.758ZM594.453 471.32L594.535 472.785C595.473 471.652 596.703 471.086 598.227 471.086C600.867 471.086 602.211 472.598 602.258 475.621V484H599.41V475.785C599.41 474.98 599.234 474.387 598.883 474.004C598.539 473.613 597.973 473.418 597.184 473.418C596.035 473.418 595.18 473.938 594.617 474.977V484H591.77V471.32H594.453ZM610.379 481.961C611.09 481.961 611.68 481.754 612.148 481.34C612.617 480.926 612.867 480.414 612.898 479.805H615.582C615.551 480.594 615.305 481.332 614.844 482.02C614.383 482.699 613.758 483.238 612.969 483.637C612.18 484.035 611.328 484.234 610.414 484.234C608.641 484.234 607.234 483.66 606.195 482.512C605.156 481.363 604.637 479.777 604.637 477.754V477.461C604.637 475.531 605.152 473.988 606.184 472.832C607.215 471.668 608.621 471.086 610.402 471.086C611.91 471.086 613.137 471.527 614.082 472.41C615.035 473.285 615.535 474.438 615.582 475.867H612.898C612.867 475.141 612.617 474.543 612.148 474.074C611.688 473.605 611.098 473.371 610.379 473.371C609.457 473.371 608.746 473.707 608.246 474.379C607.746 475.043 607.492 476.055 607.484 477.414V477.871C607.484 479.246 607.73 480.273 608.223 480.953C608.723 481.625 609.441 481.961 610.379 481.961ZM625.309 484C625.184 483.758 625.074 483.363 624.98 482.816C624.074 483.762 622.965 484.234 621.652 484.234C620.379 484.234 619.34 483.871 618.535 483.145C617.73 482.418 617.328 481.52 617.328 480.449C617.328 479.098 617.828 478.062 618.828 477.344C619.836 476.617 621.273 476.254 623.141 476.254H624.887V475.422C624.887 474.766 624.703 474.242 624.336 473.852C623.969 473.453 623.41 473.254 622.66 473.254C622.012 473.254 621.48 473.418 621.066 473.746C620.652 474.066 620.445 474.477 620.445 474.977H617.598C617.598 474.281 617.828 473.633 618.289 473.031C618.75 472.422 619.375 471.945 620.164 471.602C620.961 471.258 621.848 471.086 622.824 471.086C624.309 471.086 625.492 471.461 626.375 472.211C627.258 472.953 627.711 474 627.734 475.352V481.07C627.734 482.211 627.895 483.121 628.215 483.801V484H625.309ZM622.18 481.949C622.742 481.949 623.27 481.812 623.762 481.539C624.262 481.266 624.637 480.898 624.887 480.438V478.047H623.352C622.297 478.047 621.504 478.23 620.973 478.598C620.441 478.965 620.176 479.484 620.176 480.156C620.176 480.703 620.355 481.141 620.715 481.469C621.082 481.789 621.57 481.949 622.18 481.949ZM641.164 480.391L643.848 471.32H646.789L642.395 484H639.922L635.492 471.32H638.445L641.164 480.391ZM651.605 484H648.758V471.32H651.605V484ZM648.582 468.027C648.582 467.59 648.719 467.227 648.992 466.938C649.273 466.648 649.672 466.504 650.188 466.504C650.703 466.504 651.102 466.648 651.383 466.938C651.664 467.227 651.805 467.59 651.805 468.027C651.805 468.457 651.664 468.816 651.383 469.105C651.102 469.387 650.703 469.527 650.188 469.527C649.672 469.527 649.273 469.387 648.992 469.105C648.719 468.816 648.582 468.457 648.582 468.027ZM662.398 482.758C661.562 483.742 660.375 484.234 658.836 484.234C657.461 484.234 656.418 483.832 655.707 483.027C655.004 482.223 654.652 481.059 654.652 479.535V471.32H657.5V479.5C657.5 481.109 658.168 481.914 659.504 481.914C660.887 481.914 661.82 481.418 662.305 480.426V471.32H665.152V484H662.469L662.398 482.758ZM677.059 484H674.211V471.32H677.059V484ZM674.035 468.027C674.035 467.59 674.172 467.227 674.445 466.938C674.727 466.648 675.125 466.504 675.641 466.504C676.156 466.504 676.555 466.648 676.836 466.938C677.117 467.227 677.258 467.59 677.258 468.027C677.258 468.457 677.117 468.816 676.836 469.105C676.555 469.387 676.156 469.527 675.641 469.527C675.125 469.527 674.727 469.387 674.445 469.105C674.172 468.816 674.035 468.457 674.035 468.027ZM679.672 477.566C679.672 475.598 680.133 474.027 681.055 472.855C681.984 471.676 683.215 471.086 684.746 471.086C686.191 471.086 687.328 471.59 688.156 472.598L688.285 471.32H690.852V483.613C690.852 485.277 690.332 486.59 689.293 487.551C688.262 488.512 686.867 488.992 685.109 488.992C684.18 488.992 683.27 488.797 682.379 488.406C681.496 488.023 680.824 487.52 680.363 486.895L681.711 485.184C682.586 486.223 683.664 486.742 684.945 486.742C685.891 486.742 686.637 486.484 687.184 485.969C687.73 485.461 688.004 484.711 688.004 483.719V482.863C687.184 483.777 686.09 484.234 684.723 484.234C683.238 484.234 682.023 483.645 681.078 482.465C680.141 481.285 679.672 479.652 679.672 477.566ZM682.508 477.812C682.508 479.086 682.766 480.09 683.281 480.824C683.805 481.551 684.527 481.914 685.449 481.914C686.598 481.914 687.449 481.422 688.004 480.438V474.859C687.465 473.898 686.621 473.418 685.473 473.418C684.535 473.418 683.805 473.789 683.281 474.531C682.766 475.273 682.508 476.367 682.508 477.812ZM701.469 482.758C700.633 483.742 699.445 484.234 697.906 484.234C696.531 484.234 695.488 483.832 694.777 483.027C694.074 482.223 693.723 481.059 693.723 479.535V471.32H696.57V479.5C696.57 481.109 697.238 481.914 698.574 481.914C699.957 481.914 700.891 481.418 701.375 480.426V471.32H704.223V484H701.539L701.469 482.758ZM714.699 484C714.574 483.758 714.465 483.363 714.371 482.816C713.465 483.762 712.355 484.234 711.043 484.234C709.77 484.234 708.73 483.871 707.926 483.145C707.121 482.418 706.719 481.52 706.719 480.449C706.719 479.098 707.219 478.062 708.219 477.344C709.227 476.617 710.664 476.254 712.531 476.254H714.277V475.422C714.277 474.766 714.094 474.242 713.727 473.852C713.359 473.453 712.801 473.254 712.051 473.254C711.402 473.254 710.871 473.418 710.457 473.746C710.043 474.066 709.836 474.477 709.836 474.977H706.988C706.988 474.281 707.219 473.633 707.68 473.031C708.141 472.422 708.766 471.945 709.555 471.602C710.352 471.258 711.238 471.086 712.215 471.086C713.699 471.086 714.883 471.461 715.766 472.211C716.648 472.953 717.102 474 717.125 475.352V481.07C717.125 482.211 717.285 483.121 717.605 483.801V484H714.699ZM711.57 481.949C712.133 481.949 712.66 481.812 713.152 481.539C713.652 481.266 714.027 480.898 714.277 480.438V478.047H712.742C711.688 478.047 710.895 478.23 710.363 478.598C709.832 478.965 709.566 479.484 709.566 480.156C709.566 480.703 709.746 481.141 710.105 481.469C710.473 481.789 710.961 481.949 711.57 481.949ZM723.137 484H720.289V466H723.137V484ZM729.266 478.973H726.816L726.547 466.938H729.547L729.266 478.973ZM726.465 482.652C726.465 482.207 726.609 481.84 726.898 481.551C727.188 481.254 727.582 481.105 728.082 481.105C728.582 481.105 728.977 481.254 729.266 481.551C729.555 481.84 729.699 482.207 729.699 482.652C729.699 483.082 729.559 483.441 729.277 483.73C728.996 484.02 728.598 484.164 728.082 484.164C727.566 484.164 727.168 484.02 726.887 483.73C726.605 483.441 726.465 483.082 726.465 482.652Z" fill="#E4E4E4"/>
<g filter="url(#filter6_d)">
<path d="M446.924 395.24V404.84H470.284V419.08H446.924V437H428.044V381H473.564V395.24H446.924ZM503.529 422.92H498.409V437H479.529V381H506.489C511.662 381 516.169 381.853 520.009 383.56C523.849 385.267 526.809 387.72 528.889 390.92C530.969 394.12 532.009 397.853 532.009 402.12C532.009 406.12 531.102 409.613 529.289 412.6C527.475 415.587 524.862 417.96 521.449 419.72L533.209 437H513.049L503.529 422.92ZM512.969 402.12C512.969 400.04 512.329 398.44 511.049 397.32C509.769 396.147 507.849 395.56 505.289 395.56H498.409V408.68H505.289C507.849 408.68 509.769 408.12 511.049 407C512.329 405.827 512.969 404.2 512.969 402.12ZM539.138 381H558.018V437H539.138V381ZM567.107 381H594.707C600.947 381 606.44 382.147 611.187 384.44C615.987 386.68 619.694 389.907 622.307 394.12C624.974 398.333 626.307 403.293 626.307 409C626.307 414.707 624.974 419.667 622.307 423.88C619.694 428.093 615.987 431.347 611.187 433.64C606.44 435.88 600.947 437 594.707 437H567.107V381ZM593.907 422.28C597.96 422.28 601.187 421.133 603.587 418.84C606.04 416.493 607.267 413.213 607.267 409C607.267 404.787 606.04 401.533 603.587 399.24C601.187 396.893 597.96 395.72 593.907 395.72H585.987V422.28H593.907ZM670.579 427.24H649.299L645.539 437H626.339L650.819 381H669.379L693.859 437H674.339L670.579 427.24ZM665.379 413.64L659.939 399.56L654.499 413.64H665.379ZM726.559 416.68V437H707.679V416.44L686.559 381H706.479L717.919 400.36L729.439 381H747.679L726.559 416.68Z" fill="#FD014C"/>
<path d="M485.657 327.72C488.964 328.947 491.524 330.733 493.337 333.08C495.15 335.427 496.057 338.253 496.057 341.56C496.057 346.467 494.03 350.28 489.977 353C485.924 355.667 480.057 357 472.377 357H440.857V301H470.777C478.244 301 483.87 302.333 487.657 305C491.497 307.667 493.417 311.213 493.417 315.64C493.417 318.253 492.75 320.6 491.417 322.68C490.137 324.76 488.217 326.44 485.657 327.72ZM459.417 314.2V322.52H468.217C472.324 322.52 474.377 321.133 474.377 318.36C474.377 315.587 472.324 314.2 468.217 314.2H459.417ZM470.777 343.8C474.937 343.8 477.017 342.333 477.017 339.4C477.017 336.467 474.937 335 470.777 335H459.417V343.8H470.777ZM502.732 301H521.612V342.36H546.892V357H502.732V301ZM591.048 347.24H569.768L566.008 357H546.808L571.288 301H589.848L614.328 357H594.808L591.048 347.24ZM585.848 333.64L580.408 319.56L574.968 333.64H585.848ZM645.52 358.28C639.6 358.28 634.267 357.053 629.52 354.6C624.773 352.093 621.04 348.627 618.32 344.2C615.653 339.72 614.32 334.653 614.32 329C614.32 323.347 615.653 318.307 618.32 313.88C621.04 309.4 624.773 305.933 629.52 303.48C634.267 300.973 639.6 299.72 645.52 299.72C650.96 299.72 655.813 300.68 660.08 302.6C664.347 304.52 667.867 307.293 670.64 310.92L658.72 321.56C655.253 317.187 651.173 315 646.48 315C642.533 315 639.36 316.28 636.96 318.84C634.56 321.347 633.36 324.733 633.36 329C633.36 333.267 634.56 336.68 636.96 339.24C639.36 341.747 642.533 343 646.48 343C651.173 343 655.253 340.813 658.72 336.44L670.64 347.08C667.867 350.707 664.347 353.48 660.08 355.4C655.813 357.32 650.96 358.28 645.52 358.28ZM698.891 338.44L694.651 343.16V357H676.091V301H694.651V321.32L713.051 301H733.611L711.211 325.64L734.731 357H712.891L698.891 338.44Z" fill="#31F674"/>
</g>
<g opacity="0.3" filter="url(#filter7_d)">
<path d="M192.454 570.952L214.5 596.384L236.546 570.952L253 589.933L230.954 615.366L253 640.799L236.546 659.781L214.5 634.348L192.454 659.781L176 640.799L198.046 615.366L176 589.933L192.454 570.952Z" fill="#D90047"/>
</g>
<g opacity="0.3" filter="url(#filter8_d)">
<path d="M1149.5 614C1149.5 631.844 1134.83 646.5 1116.5 646.5C1098.17 646.5 1083.5 631.844 1083.5 614C1083.5 596.156 1098.17 581.5 1116.5 581.5C1134.83 581.5 1149.5 596.156 1149.5 614Z" stroke="#FF50D8" stroke-width="19"/>
</g>
<g opacity="0.3" filter="url(#filter9_d)">
<path d="M115.752 280.259L156.613 234.179L168.96 294.516L115.752 280.259Z" stroke="#31F674" stroke-width="14"/>
</g>
<g opacity="0.3" filter="url(#filter10_d)">
<rect x="914.619" y="42.1185" width="60.7378" height="60.7378" transform="rotate(-30.1425 914.619 42.1185)" stroke="#FF5C00" stroke-width="17"/>
</g>
<g opacity="0.49">
<circle cx="1158.5" cy="455.5" r="11.5" fill="#31F674"/>
<circle cx="1158.5" cy="455.5" r="8.625" fill="#212121"/>
</g>
<g opacity="0.49">
<circle cx="997.5" cy="245.5" r="11.5" fill="#31F674"/>
<circle cx="997.5" cy="245.5" r="8.625" fill="#212121"/>
</g>
<g opacity="0.49">
<circle cx="944.5" cy="613.5" r="11.5" fill="#31F674"/>
<circle cx="944.5" cy="613.5" r="8.625" fill="#212121"/>
</g>
<g opacity="0.49">
<circle cx="72.5" cy="732.5" r="21.5" fill="#31F674"/>
<circle cx="72.5" cy="732.5" r="16.125" fill="#212121"/>
</g>
<g opacity="0.49">
<circle cx="11.5" cy="320.5" r="11.5" fill="#31F674"/>
<circle cx="11.5" cy="320.5" r="8.625" fill="#212121"/>
</g>
<g opacity="0.49">
<circle r="5.5" transform="matrix(-1 0 0 1 138.5 101.5)" fill="#31F674"/>
<circle r="4.125" transform="matrix(-1 0 0 1 138.5 101.5)" fill="#212121"/>
</g>
<g opacity="0.49">
<circle cx="1110" cy="15" r="9" fill="#31F674"/>
<circle cx="1110" cy="15" r="6.75" fill="#212121"/>
</g>
<defs>
<filter id="filter0_d" x="272" y="268" width="113" height="142" filterUnits="userSpaceOnUse" color-interpolation-filters="sRGB">
<feFlood flood-opacity="0" result="BackgroundImageFix"/>
<feColorMatrix in="SourceAlpha" type="matrix" values="0 0 0 0 0 0 0 0 0 0 0 0 0 0 0 0 0 0 127 0"/>
<feOffset dy="4"/>
<feGaussianBlur stdDeviation="2"/>
<feColorMatrix type="matrix" values="0 0 0 0 0 0 0 0 0 0 0 0 0 0 0 0 0 0 0.25 0"/>
<feBlend mode="normal" in2="BackgroundImageFix" result="effect1_dropShadow"/>
<feBlend mode="normal" in="SourceGraphic" in2="effect1_dropShadow" result="shape"/>
</filter>
<filter id="filter1_d" x="461" y="548" width="146.346" height="118.606" filterUnits="userSpaceOnUse" color-interpolation-filters="sRGB">
<feFlood flood-opacity="0" result="BackgroundImageFix"/>
<feColorMatrix in="SourceAlpha" type="matrix" values="0 0 0 0 0 0 0 0 0 0 0 0 0 0 0 0 0 0 127 0"/>
<feOffset dy="4"/>
<feGaussianBlur stdDeviation="2"/>
<feColorMatrix type="matrix" values="0 0 0 0 0 0 0 0 0 0 0 0 0 0 0 0 0 0 0.25 0"/>
<feBlend mode="normal" in2="BackgroundImageFix" result="effect1_dropShadow"/>
<feBlend mode="normal" in="SourceGraphic" in2="effect1_dropShadow" result="shape"/>
</filter>
<filter id="filter2_d" x="751" y="350" width="131.468" height="130.827" filterUnits="userSpaceOnUse" color-interpolation-filters="sRGB">
<feFlood flood-opacity="0" result="BackgroundImageFix"/>
<feColorMatrix in="SourceAlpha" type="matrix" values="0 0 0 0 0 0 0 0 0 0 0 0 0 0 0 0 0 0 127 0"/>
<feOffset dy="4"/>
<feGaussianBlur stdDeviation="2"/>
<feColorMatrix type="matrix" values="0 0 0 0 0 0 0 0 0 0 0 0 0 0 0 0 0 0 0.25 0"/>
<feBlend mode="normal" in2="BackgroundImageFix" result="effect1_dropShadow"/>
<feBlend mode="normal" in="SourceGraphic" in2="effect1_dropShadow" result="shape"/>
</filter>
<filter id="filter3_d" x="733" y="141" width="164.61" height="144.104" filterUnits="userSpaceOnUse" color-interpolation-filters="sRGB">
<feFlood flood-opacity="0" result="BackgroundImageFix"/>
<feColorMatrix in="SourceAlpha" type="matrix" values="0 0 0 0 0 0 0 0 0 0 0 0 0 0 0 0 0 0 127 0"/>
<feOffset dy="4"/>
<feGaussianBlur stdDeviation="2"/>
<feColorMatrix type="matrix" values="0 0 0 0 0 0 0 0 0 0 0 0 0 0 0 0 0 0 0.25 0"/>
<feBlend mode="normal" in2="BackgroundImageFix" result="effect1_dropShadow"/>
<feBlend mode="normal" in="SourceGraphic" in2="effect1_dropShadow" result="shape"/>
</filter>
<filter id="filter4_d" x="389.853" y="74.0002" width="111.048" height="106.145" filterUnits="userSpaceOnUse" color-interpolation-filters="sRGB">
<feFlood flood-opacity="0" result="BackgroundImageFix"/>
<feColorMatrix in="SourceAlpha" type="matrix" values="0 0 0 0 0 0 0 0 0 0 0 0 0 0 0 0 0 0 127 0"/>
<feOffset dy="4"/>
<feGaussianBlur stdDeviation="2"/>
<feColorMatrix type="matrix" values="0 0 0 0 0 0 0 0 0 0 0 0 0 0 0 0 0 0 0.25 0"/>
<feBlend mode="normal" in2="BackgroundImageFix" result="effect1_dropShadow"/>
<feBlend mode="normal" in="SourceGraphic" in2="effect1_dropShadow" result="shape"/>
</filter>
<filter id="filter5_d" x="562" y="160" width="73.6574" height="98.2074" filterUnits="userSpaceOnUse" color-interpolation-filters="sRGB">
<feFlood flood-opacity="0" result="BackgroundImageFix"/>
<feColorMatrix in="SourceAlpha" type="matrix" values="0 0 0 0 0 0 0 0 0 0 0 0 0 0 0 0 0 0 127 0"/>
<feOffset dy="4"/>
<feGaussianBlur stdDeviation="2"/>
<feColorMatrix type="matrix" values="0 0 0 0 0 0 0 0 0 0 0 0 0 0 0 0 0 0 0.25 0"/>
<feBlend mode="normal" in2="BackgroundImageFix" result="effect1_dropShadow"/>
<feBlend mode="normal" in="SourceGraphic" in2="effect1_dropShadow" result="shape"/>
</filter>
<filter id="filter6_d" x="423.044" y="296.72" width="329.634" height="147.28" filterUnits="userSpaceOnUse" color-interpolation-filters="sRGB">
<feFlood flood-opacity="0" result="BackgroundImageFix"/>
<feColorMatrix in="SourceAlpha" type="matrix" values="0 0 0 0 0 0 0 0 0 0 0 0 0 0 0 0 0 0 127 0"/>
<feOffset dy="2"/>
<feGaussianBlur stdDeviation="2.5"/>
<feColorMatrix type="matrix" values="0 0 0 0 0 0 0 0 0 0 0 0 0 0 0 0 0 0 0.42 0"/>
<feBlend mode="normal" in2="BackgroundImageFix" result="effect1_dropShadow"/>
<feBlend mode="normal" in="SourceGraphic" in2="effect1_dropShadow" result="shape"/>
</filter>
<filter id="filter7_d" x="172" y="570.952" width="85" height="96.8291" filterUnits="userSpaceOnUse" color-interpolation-filters="sRGB">
<feFlood flood-opacity="0" result="BackgroundImageFix"/>
<feColorMatrix in="SourceAlpha" type="matrix" values="0 0 0 0 0 0 0 0 0 0 0 0 0 0 0 0 0 0 127 0"/>
<feOffset dy="4"/>
<feGaussianBlur stdDeviation="2"/>
<feColorMatrix type="matrix" values="0 0 0 0 0 0 0 0 0 0 0 0 0 0 0 0 0 0 0.25 0"/>
<feBlend mode="normal" in2="BackgroundImageFix" result="effect1_dropShadow"/>
<feBlend mode="normal" in="SourceGraphic" in2="effect1_dropShadow" result="shape"/>
</filter>
<filter id="filter8_d" x="1070" y="572" width="93" height="92" filterUnits="userSpaceOnUse" color-interpolation-filters="sRGB">
<feFlood flood-opacity="0" result="BackgroundImageFix"/>
<feColorMatrix in="SourceAlpha" type="matrix" values="0 0 0 0 0 0 0 0 0 0 0 0 0 0 0 0 0 0 127 0"/>
<feOffset dy="4"/>
<feGaussianBlur stdDeviation="2"/>
<feColorMatrix type="matrix" values="0 0 0 0 0 0 0 0 0 0 0 0 0 0 0 0 0 0 0.25 0"/>
<feBlend mode="normal" in2="BackgroundImageFix" result="effect1_dropShadow"/>
<feBlend mode="normal" in="SourceGraphic" in2="effect1_dropShadow" result="shape"/>
</filter>
<filter id="filter9_d" x="99" y="209" width="103.209" height="103.209" filterUnits="userSpaceOnUse" color-interpolation-filters="sRGB">
<feFlood flood-opacity="0" result="BackgroundImageFix"/>
<feColorMatrix in="SourceAlpha" type="matrix" values="0 0 0 0 0 0 0 0 0 0 0 0 0 0 0 0 0 0 127 0"/>
<feOffset dy="4"/>
<feGaussianBlur stdDeviation="2"/>
<feColorMatrix type="matrix" values="0 0 0 0 0 0 0 0 0 0 0 0 0 0 0 0 0 0 0.25 0"/>
<feBlend mode="normal" in2="BackgroundImageFix" result="effect1_dropShadow"/>
<feBlend mode="normal" in="SourceGraphic" in2="effect1_dropShadow" result="shape"/>
</filter>
<filter id="filter10_d" x="899" y="0" width="114.262" height="114.262" filterUnits="userSpaceOnUse" color-interpolation-filters="sRGB">
<feFlood flood-opacity="0" result="BackgroundImageFix"/>
<feColorMatrix in="SourceAlpha" type="matrix" values="0 0 0 0 0 0 0 0 0 0 0 0 0 0 0 0 0 0 127 0"/>
<feOffset dy="4"/>
<feGaussianBlur stdDeviation="2"/>
<feColorMatrix type="matrix" values="0 0 0 0 0 0 0 0 0 0 0 0 0 0 0 0 0 0 0.25 0"/>
<feBlend mode="normal" in2="BackgroundImageFix" result="effect1_dropShadow"/>
<feBlend mode="normal" in="SourceGraphic" in2="effect1_dropShadow" result="shape"/>
</filter>
</defs>
</svg>
