<svg width="25" height="24" viewBox="0 0 25 24" fill="none" xmlns="http://www.w3.org/2000/svg">
<path d="M17.6851 2H7.68506C4.92363 2 2.68506 4.23858 2.68506 7V17C2.68506 19.7614 4.92363 22 7.68506 22H17.6851C20.4465 22 22.6851 19.7614 22.6851 17V7C22.6851 4.23858 20.4465 2 17.6851 2Z" stroke="#31F674" stroke-width="2" stroke-linecap="round" stroke-linejoin="round"/>
<path d="M16.6851 11.3701C16.8085 12.2023 16.6663 13.0523 16.2788 13.7991C15.8913 14.5459 15.2782 15.1515 14.5267 15.5297C13.7752 15.908 12.9235 16.0397 12.0929 15.906C11.2622 15.7723 10.4948 15.3801 9.89991 14.7852C9.30499 14.1903 8.9128 13.4229 8.77914 12.5923C8.64547 11.7616 8.77714 10.91 9.1554 10.1584C9.53366 9.40691 10.1393 8.7938 10.8861 8.4063C11.6329 8.0188 12.4828 7.87665 13.3151 8.00006C14.164 8.12594 14.9499 8.52152 15.5568 9.12836C16.1636 9.73521 16.5592 10.5211 16.6851 11.3701Z" stroke="#31F674" stroke-width="2" stroke-linecap="round" stroke-linejoin="round"/>
<path d="M18.1851 6.5H18.1951" stroke="#31F674" stroke-width="2" stroke-linecap="round" stroke-linejoin="round"/>
</svg>
