<svg width="93" height="68" viewBox="0 0 93 68" fill="none" xmlns="http://www.w3.org/2000/svg">
<g filter="url(#filter0_d)">
<path d="M87.4421 24.9105L74.6676 13.1048C74.356 12.79 74.0444 12.6326 73.5771 12.6326H59.4005C58.7773 12.6326 58.31 12.79 57.8426 12.9474V4.76209C57.8426 2.08612 55.8174 0.0397949 53.169 0.0397949H9.54861C6.90023 0.0397949 4.875 2.08612 4.875 4.76209V29.9477C4.875 31.2069 5.34236 32.3088 6.1213 33.0959C5.34236 33.8829 4.875 34.9848 4.875 36.2441V45.6886C4.875 48.3646 6.90023 50.4109 9.54861 50.4109H14.2222C14.2222 55.6055 18.4285 59.8555 23.5694 59.8555C28.7104 59.8555 32.9167 55.6055 32.9167 50.4109H53.169C54.4153 50.4109 55.5058 49.9387 56.2847 49.1517C57.0637 49.9387 58.1542 50.4109 59.4005 50.4109H60.9583C60.9583 55.6055 65.1646 59.8555 70.3056 59.8555C75.4465 59.8555 79.6528 55.6055 79.6528 50.4109H84.3264C86.9748 50.4109 89 48.3646 89 45.6886V28.3736C89 27.1143 88.3769 25.855 87.4421 24.9105ZM7.99074 4.76209C7.99074 3.81763 8.61389 3.18799 9.54861 3.18799H53.169C54.1037 3.18799 54.7269 3.81763 54.7269 4.76209V17.3549V29.9477C54.7269 30.8921 54.1037 31.5218 53.169 31.5218H9.54861C8.61389 31.5218 7.99074 30.8921 7.99074 29.9477V4.76209ZM23.5694 56.7073C20.1421 56.7073 17.338 53.874 17.338 50.4109C17.338 46.9479 20.1421 44.1145 23.5694 44.1145C26.9968 44.1145 29.8009 46.9479 29.8009 50.4109C29.8009 53.874 26.9968 56.7073 23.5694 56.7073ZM53.169 47.2627H32.2935C31.0472 43.6423 27.6199 40.9663 23.5694 40.9663C19.519 40.9663 16.0917 43.6423 14.8454 47.2627H9.54861C8.61389 47.2627 7.99074 46.6331 7.99074 45.6886V36.2441C7.99074 35.2996 8.61389 34.67 9.54861 34.67H53.169C54.1037 34.67 54.7269 35.2996 54.7269 36.2441V45.6886C54.7269 46.6331 54.1037 47.2627 53.169 47.2627ZM70.3056 56.7073C66.8782 56.7073 64.0741 53.874 64.0741 50.4109C64.0741 46.9479 66.8782 44.1145 70.3056 44.1145C73.7329 44.1145 76.537 46.9479 76.537 50.4109C76.537 53.874 73.7329 56.7073 70.3056 56.7073ZM85.8843 45.6886C85.8843 46.6331 85.2611 47.2627 84.3264 47.2627H79.3412C79.1854 47.2627 79.1854 47.2627 79.0296 47.2627C77.7833 43.6423 74.356 40.9663 70.1498 40.9663C66.0993 40.9663 62.672 43.6423 61.4257 47.2627H59.4005C58.4657 47.2627 57.8426 46.6331 57.8426 45.6886V36.2441V29.9477V17.3549C57.8426 16.4104 58.4657 15.7808 59.4005 15.7808H72.9539L85.4169 27.2717C85.7285 27.5865 85.8843 28.0587 85.8843 28.3736V45.6886Z" fill="#31F674"/>
</g>
<defs>
<filter id="filter0_d" x="0.875" y="0.0397949" width="92.125" height="67.8157" filterUnits="userSpaceOnUse" color-interpolation-filters="sRGB">
<feFlood flood-opacity="0" result="BackgroundImageFix"/>
<feColorMatrix in="SourceAlpha" type="matrix" values="0 0 0 0 0 0 0 0 0 0 0 0 0 0 0 0 0 0 127 0"/>
<feOffset dy="4"/>
<feGaussianBlur stdDeviation="2"/>
<feColorMatrix type="matrix" values="0 0 0 0 0 0 0 0 0 0 0 0 0 0 0 0 0 0 0.25 0"/>
<feBlend mode="normal" in2="BackgroundImageFix" result="effect1_dropShadow"/>
<feBlend mode="normal" in="SourceGraphic" in2="effect1_dropShadow" result="shape"/>
</filter>
</defs>
</svg>
