<svg width="64" height="71" viewBox="0 0 64 71" fill="none" xmlns="http://www.w3.org/2000/svg">
<g filter="url(#filter0_d)">
<path fill-rule="evenodd" clip-rule="evenodd" d="M58.42 25.4779C58.0796 23.599 56.9761 22.349 54.9482 21.5425C52.7824 20.6863 50.4897 20.4627 48.2716 20.2465L47.2762 20.1472C47.1906 20.1384 47.1049 20.1335 47.0202 20.1335C46.1779 20.1335 45.5939 20.5859 45.4609 21.3414C45.3875 21.7639 45.4546 22.1229 45.6582 22.4088C45.9045 22.7543 46.3566 22.9879 46.9642 23.0848C47.6676 23.194 48.3772 23.2698 49.0855 23.3457C49.9006 23.434 50.7159 23.5209 51.5222 23.66C54.9295 24.2503 55.7634 25.1959 55.9821 28.7163C56.0081 29.1499 56.0566 29.581 56.1039 30.011C56.1375 30.3093 56.171 30.6063 56.197 30.9045C56.5935 35.4215 56.8767 40.7484 55.987 46.0048C55.6166 48.1833 54.0809 49.5909 52.0429 49.5909L51.6217 49.5884C48.8991 49.5884 46.1442 49.812 43.48 50.0282C40.8234 50.2433 38.0771 50.4657 35.3707 50.4657C34.6761 50.4657 33.9827 50.452 33.2875 50.4198C33.1501 50.4137 33.0152 50.4098 32.8824 50.4098C30.8129 50.4098 29.1074 51.1752 27.5142 52.818C25.9852 54.3962 24.3009 56.0314 22.2145 57.9602L22.0822 58.0829C21.6765 58.4608 21.2167 58.8883 20.7166 58.8883C20.6222 58.8883 20.5265 58.8719 20.4339 58.8409C19.907 58.6619 19.9256 58.2034 19.9467 57.6717C19.9561 57.4429 19.9655 57.208 19.9256 56.9944C19.874 56.716 19.8417 56.4339 19.8089 56.1532C19.7802 55.9058 19.7517 55.6598 19.7106 55.4149C18.9401 50.7825 18.8899 50.7354 14.3636 50.3737L13.8884 50.3365C11.8784 50.181 9.9796 50.0345 8.7731 47.9283C8.06923 46.7017 7.98148 45.4593 7.88973 44.1444C7.8661 43.814 7.84298 43.4823 7.80948 43.1518C7.35723 38.723 7.29685 33.9863 7.61248 27.7893C7.75973 24.9039 9.0266 23.6179 11.7187 23.6179C12.0057 23.6179 12.3077 23.6328 12.6252 23.6614C12.9316 23.6888 13.2372 23.7248 13.5424 23.7608C14.1549 23.8329 14.7886 23.9075 15.4249 23.9087C16.3916 23.9087 16.985 23.3768 17.0116 22.4847C17.0359 21.6733 16.537 21.1227 15.6777 21.0122L15.3211 20.9662C14.2102 20.822 13.0621 20.6729 11.9325 20.6729C10.9429 20.6729 10.073 20.7873 9.27448 21.0247C6.83335 21.7465 5.3591 23.2973 4.8931 25.6347C4.7626 26.2897 4.6601 26.9594 4.5806 27.6825C4.3601 29.7018 4.36873 31.757 4.37748 33.8234C4.32023 36.777 4.43898 39.9047 4.72973 43.1208C4.82235 44.1495 4.9316 45.1772 5.05585 46.2023C5.50998 49.985 7.81085 52.3434 11.7089 53.023C12.7365 53.2008 13.7417 53.3214 14.6967 53.3809C16.0257 53.4642 16.6396 54.1265 16.7509 55.5953C16.867 57.1473 17.0404 58.6868 17.2652 60.1693C17.543 61.9984 18.0822 62.7452 19.1272 62.7452C19.6616 62.7452 20.327 62.5464 21.2851 62.1017C23.5852 61.0367 25.297 59.2733 26.9527 57.5687C27.9406 56.552 28.9614 55.4995 30.0922 54.616C31.0112 53.899 31.7666 53.5922 32.7012 53.5548C36.9429 53.3922 41.185 53.1957 45.4249 52.9994L51.4602 52.7235C55.582 52.5409 58.301 50.3737 58.9184 46.7802C60.0181 40.3719 59.8566 33.4034 58.42 25.4779Z" fill="#31F674"/>
<path fill-rule="evenodd" clip-rule="evenodd" d="M20.227 17.0208L22.2786 17.242C23.2508 17.3451 24.2232 17.4481 25.1968 17.5625C25.3993 17.5849 25.5926 17.5973 25.7746 17.5973C26.4786 17.5973 26.9942 17.4221 27.3509 17.0605C27.733 16.6728 27.9137 16.0925 27.9032 15.2848C27.892 14.2546 28.3095 13.345 28.7631 12.5149C29.3272 11.4674 29.9243 10.5293 31.0308 10.5293C31.2831 10.5293 31.5602 10.5789 31.8535 10.6759C33.3025 11.168 33.8137 12.4689 33.2911 14.3416C32.5519 17.0083 30.9084 19.4574 28.2653 21.8284C25.9311 23.9446 24.9718 26.0806 25.2446 28.5373C25.221 31.4475 25.3488 32.9721 26.1386 33.7686C26.6673 34.3019 27.4782 34.5191 28.9365 34.5191C29.5347 34.5191 30.2306 34.4845 31.0321 34.4285C31.1737 34.4285 31.316 34.4285 31.444 34.4173C34.1492 34.2359 34.7855 33.5599 34.681 30.9715C34.6239 29.4729 35.0837 28.3608 36.1696 27.3666C37.8646 25.7973 39.5122 24.2514 41.0407 22.6075C45.5664 17.7911 45.7825 11.1381 41.5901 5.65939C39.5435 2.98277 35.3271 1.25439 30.8495 1.25439C28.3927 1.25439 26.2052 1.78252 24.5245 2.78402C20.5966 5.12389 18.537 8.89764 18.0436 14.6635C17.9313 15.9919 18.7272 16.8518 20.227 17.0208ZM28.3437 29.104L28.3376 28.2218C27.9915 26.692 28.8471 25.483 30.3387 24.0279C32.698 21.7204 35.2315 18.8436 36.1374 15.0028C36.8111 12.1584 36.2766 10.2238 34.4014 8.73139C33.4253 7.96089 32.3512 7.56952 31.2091 7.56952C30.5139 7.56952 29.774 7.71364 29.0091 7.99939C26.9712 8.75489 26.2591 10.5666 25.5707 12.3188C25.4738 12.5635 25.3775 12.8096 25.2781 13.0506C24.9302 13.8906 24.6885 14.3678 23.7696 14.4001L23.4918 14.4039C22.4853 14.4039 21.8777 14.2213 21.5781 13.8285C21.2712 13.4259 21.2582 12.766 21.5371 11.7508C22.8805 6.87852 25.8814 4.40189 30.4572 4.39077H30.7331C33.872 4.39077 37.0891 4.77977 39.3544 7.60052C42.5219 11.5221 42.2584 17.0531 38.7294 20.7523C37.847 21.6768 36.8854 22.5466 35.9559 23.3879L34.9494 24.3036C33.2371 25.8893 31.4664 27.5295 31.5496 30.257C31.5645 30.6733 31.4781 30.9764 31.2849 31.1828C30.9929 31.4959 30.4741 31.5755 29.6801 31.599C29.1892 31.599 28.8457 31.4896 28.6301 31.2648C28.4146 31.0399 28.3201 30.6944 28.3406 30.2073C28.3482 29.867 28.3463 29.5301 28.3437 29.104Z" fill="#31F674"/>
<path fill-rule="evenodd" clip-rule="evenodd" d="M30.8712 34.9568C27.4441 34.9568 24.4283 37.7949 24.4165 41.032C24.4165 44.1025 27.1937 47.0712 30.1318 47.1394L30.2182 47.1407C33.3111 47.1407 35.9337 44.0005 35.9461 40.2828C35.9461 36.8978 34.096 34.9568 30.8712 34.9568ZM30.2065 44.0242C28.8333 44.0242 27.6106 42.7145 27.5361 41.1663C27.5026 40.3512 27.7163 39.6888 28.1717 39.1965C28.7701 38.5493 29.7728 38.1963 31.1535 38.1453L31.2982 38.1428C32.3742 38.1428 32.8061 38.7432 32.8383 40.2852C32.8713 42.3143 31.7517 43.9558 30.2065 44.0242Z" fill="#31F674"/>
</g>
<defs>
<filter id="filter0_d" x="-4" y="0" width="72" height="72" filterUnits="userSpaceOnUse" color-interpolation-filters="sRGB">
<feFlood flood-opacity="0" result="BackgroundImageFix"/>
<feColorMatrix in="SourceAlpha" type="matrix" values="0 0 0 0 0 0 0 0 0 0 0 0 0 0 0 0 0 0 127 0"/>
<feOffset dy="4"/>
<feGaussianBlur stdDeviation="2"/>
<feColorMatrix type="matrix" values="0 0 0 0 0 0 0 0 0 0 0 0 0 0 0 0 0 0 0.25 0"/>
<feBlend mode="normal" in2="BackgroundImageFix" result="effect1_dropShadow"/>
<feBlend mode="normal" in="SourceGraphic" in2="effect1_dropShadow" result="shape"/>
</filter>
</defs>
</svg>
