<svg width="626" height="593" viewBox="0 0 626 593" fill="none" xmlns="http://www.w3.org/2000/svg">
<g filter="url(#filter0_d)">
<path d="M70 194L109 301L4 328L70 194Z" fill="#88E4A8"/>
<path d="M70 194L109 301L4 328L70 194Z" fill="#88E4A8"/>
</g>
<g filter="url(#filter1_d)">
<path d="M194.659 518.666L299.903 475.149L331.346 578.905L194.659 518.666Z" fill="#4C9A66" fill-opacity="0.45"/>
<path d="M194.659 518.666L299.903 475.149L331.346 578.905L194.659 518.666Z" fill="#4C9A66" fill-opacity="0.45"/>
</g>
<g filter="url(#filter2_d)">
<path d="M516.278 296.526L592.258 329.951L553.526 398.827L516.278 296.526Z" fill="#31F674" fill-opacity="0.61"/>
<path d="M516.278 296.526L592.258 329.951L553.526 398.827L516.278 296.526Z" fill="#31F674" fill-opacity="0.61"/>
</g>
<g filter="url(#filter3_d)">
<path d="M482.082 104.671L595.53 94.6935L594.434 203.104L482.082 104.671Z" fill="#88E4A7"/>
<path d="M482.082 104.671L595.53 94.6935L594.434 203.104L482.082 104.671Z" fill="#88E4A7"/>
</g>
<g filter="url(#filter4_d)">
<path d="M144.053 19.7127L211.254 35.9911L189.583 98.1451L144.053 19.7127Z" fill="#31F674"/>
<path d="M144.053 19.7127L211.254 35.9911L189.583 98.1451L144.053 19.7127Z" fill="#31F674"/>
</g>
<g filter="url(#filter5_d)">
<path d="M333.042 87.9173L354.818 144.324L312.318 176.207L333.042 87.9173Z" fill="#48D678"/>
<path d="M333.042 87.9173L354.818 144.324L312.318 176.207L333.042 87.9173Z" fill="#48D678"/>
</g>
<path d="M179.754 404.445C179.582 406.266 178.91 407.688 177.738 408.711C176.566 409.727 175.008 410.234 173.062 410.234C171.703 410.234 170.504 409.914 169.465 409.273C168.434 408.625 167.637 407.707 167.074 406.52C166.512 405.332 166.219 403.953 166.195 402.383V400.789C166.195 399.18 166.48 397.762 167.051 396.535C167.621 395.309 168.438 394.363 169.5 393.699C170.57 393.035 171.805 392.703 173.203 392.703C175.086 392.703 176.602 393.215 177.75 394.238C178.898 395.262 179.566 396.707 179.754 398.574H176.801C176.66 397.348 176.301 396.465 175.723 395.926C175.152 395.379 174.312 395.105 173.203 395.105C171.914 395.105 170.922 395.578 170.227 396.523C169.539 397.461 169.188 398.84 169.172 400.66V402.172C169.172 404.016 169.5 405.422 170.156 406.391C170.82 407.359 171.789 407.844 173.062 407.844C174.227 407.844 175.102 407.582 175.688 407.059C176.273 406.535 176.645 405.664 176.801 404.445H179.754ZM181.605 403.543C181.605 402.301 181.852 401.184 182.344 400.191C182.836 399.191 183.527 398.426 184.418 397.895C185.309 397.355 186.332 397.086 187.488 397.086C189.199 397.086 190.586 397.637 191.648 398.738C192.719 399.84 193.297 401.301 193.383 403.121L193.395 403.789C193.395 405.039 193.152 406.156 192.668 407.141C192.191 408.125 191.504 408.887 190.605 409.426C189.715 409.965 188.684 410.234 187.512 410.234C185.723 410.234 184.289 409.641 183.211 408.453C182.141 407.258 181.605 405.668 181.605 403.684V403.543ZM184.453 403.789C184.453 405.094 184.723 406.117 185.262 406.859C185.801 407.594 186.551 407.961 187.512 407.961C188.473 407.961 189.219 407.586 189.75 406.836C190.289 406.086 190.559 404.988 190.559 403.543C190.559 402.262 190.281 401.246 189.727 400.496C189.18 399.746 188.434 399.371 187.488 399.371C186.559 399.371 185.82 399.742 185.273 400.484C184.727 401.219 184.453 402.32 184.453 403.789ZM198.48 397.32L198.562 398.645C199.453 397.605 200.672 397.086 202.219 397.086C203.914 397.086 205.074 397.734 205.699 399.031C206.621 397.734 207.918 397.086 209.59 397.086C210.988 397.086 212.027 397.473 212.707 398.246C213.395 399.02 213.746 400.16 213.762 401.668V410H210.914V401.75C210.914 400.945 210.738 400.355 210.387 399.98C210.035 399.605 209.453 399.418 208.641 399.418C207.992 399.418 207.461 399.594 207.047 399.945C206.641 400.289 206.355 400.742 206.191 401.305L206.203 410H203.355V401.656C203.316 400.164 202.555 399.418 201.07 399.418C199.93 399.418 199.121 399.883 198.645 400.812V410H195.797V397.32H198.48ZM216.152 403.543C216.152 402.301 216.398 401.184 216.891 400.191C217.383 399.191 218.074 398.426 218.965 397.895C219.855 397.355 220.879 397.086 222.035 397.086C223.746 397.086 225.133 397.637 226.195 398.738C227.266 399.84 227.844 401.301 227.93 403.121L227.941 403.789C227.941 405.039 227.699 406.156 227.215 407.141C226.738 408.125 226.051 408.887 225.152 409.426C224.262 409.965 223.23 410.234 222.059 410.234C220.27 410.234 218.836 409.641 217.758 408.453C216.688 407.258 216.152 405.668 216.152 403.684V403.543ZM219 403.789C219 405.094 219.27 406.117 219.809 406.859C220.348 407.594 221.098 407.961 222.059 407.961C223.02 407.961 223.766 407.586 224.297 406.836C224.836 406.086 225.105 404.988 225.105 403.543C225.105 402.262 224.828 401.246 224.273 400.496C223.727 399.746 222.98 399.371 222.035 399.371C221.105 399.371 220.367 399.742 219.82 400.484C219.273 401.219 219 402.32 219 403.789ZM240.797 406.391L243.48 397.32H246.422L242.027 410H239.555L235.125 397.32H238.078L240.797 406.391ZM247.488 403.543C247.488 402.301 247.734 401.184 248.227 400.191C248.719 399.191 249.41 398.426 250.301 397.895C251.191 397.355 252.215 397.086 253.371 397.086C255.082 397.086 256.469 397.637 257.531 398.738C258.602 399.84 259.18 401.301 259.266 403.121L259.277 403.789C259.277 405.039 259.035 406.156 258.551 407.141C258.074 408.125 257.387 408.887 256.488 409.426C255.598 409.965 254.566 410.234 253.395 410.234C251.605 410.234 250.172 409.641 249.094 408.453C248.023 407.258 247.488 405.668 247.488 403.684V403.543ZM250.336 403.789C250.336 405.094 250.605 406.117 251.145 406.859C251.684 407.594 252.434 407.961 253.395 407.961C254.355 407.961 255.102 407.586 255.633 406.836C256.172 406.086 256.441 404.988 256.441 403.543C256.441 402.262 256.164 401.246 255.609 400.496C255.062 399.746 254.316 399.371 253.371 399.371C252.441 399.371 251.703 399.742 251.156 400.484C250.609 401.219 250.336 402.32 250.336 403.789ZM266.895 407.961C267.605 407.961 268.195 407.754 268.664 407.34C269.133 406.926 269.383 406.414 269.414 405.805H272.098C272.066 406.594 271.82 407.332 271.359 408.02C270.898 408.699 270.273 409.238 269.484 409.637C268.695 410.035 267.844 410.234 266.93 410.234C265.156 410.234 263.75 409.66 262.711 408.512C261.672 407.363 261.152 405.777 261.152 403.754V403.461C261.152 401.531 261.668 399.988 262.699 398.832C263.73 397.668 265.137 397.086 266.918 397.086C268.426 397.086 269.652 397.527 270.598 398.41C271.551 399.285 272.051 400.438 272.098 401.867H269.414C269.383 401.141 269.133 400.543 268.664 400.074C268.203 399.605 267.613 399.371 266.895 399.371C265.973 399.371 265.262 399.707 264.762 400.379C264.262 401.043 264.008 402.055 264 403.414V403.871C264 405.246 264.246 406.273 264.738 406.953C265.238 407.625 265.957 407.961 266.895 407.961ZM279.832 410.234C278.027 410.234 276.562 409.668 275.438 408.535C274.32 407.395 273.762 405.879 273.762 403.988V403.637C273.762 402.371 274.004 401.242 274.488 400.25C274.98 399.25 275.668 398.473 276.551 397.918C277.434 397.363 278.418 397.086 279.504 397.086C281.23 397.086 282.562 397.637 283.5 398.738C284.445 399.84 284.918 401.398 284.918 403.414V404.562H276.633C276.719 405.609 277.066 406.438 277.676 407.047C278.293 407.656 279.066 407.961 279.996 407.961C281.301 407.961 282.363 407.434 283.184 406.379L284.719 407.844C284.211 408.602 283.531 409.191 282.68 409.613C281.836 410.027 280.887 410.234 279.832 410.234ZM279.492 399.371C278.711 399.371 278.078 399.645 277.594 400.191C277.117 400.738 276.812 401.5 276.68 402.477H282.105V402.266C282.043 401.312 281.789 400.594 281.344 400.109C280.898 399.617 280.281 399.371 279.492 399.371ZM283.336 395.246V395.375H281.051L279.293 393.547L277.547 395.375H275.285V395.223L278.461 391.988H280.137L283.336 395.246ZM295.758 397.32L295.84 398.785C296.777 397.652 298.008 397.086 299.531 397.086C302.172 397.086 303.516 398.598 303.562 401.621V410H300.715V401.785C300.715 400.98 300.539 400.387 300.188 400.004C299.844 399.613 299.277 399.418 298.488 399.418C297.34 399.418 296.484 399.938 295.922 400.977V410H293.074V397.32H295.758ZM314.156 408.758C313.32 409.742 312.133 410.234 310.594 410.234C309.219 410.234 308.176 409.832 307.465 409.027C306.762 408.223 306.41 407.059 306.41 405.535V397.32H309.258V405.5C309.258 407.109 309.926 407.914 311.262 407.914C312.645 407.914 313.578 407.418 314.062 406.426V397.32H316.91V410H314.227L314.156 408.758ZM322.453 397.32L322.535 398.785C323.473 397.652 324.703 397.086 326.227 397.086C328.867 397.086 330.211 398.598 330.258 401.621V410H327.41V401.785C327.41 400.98 327.234 400.387 326.883 400.004C326.539 399.613 325.973 399.418 325.184 399.418C324.035 399.418 323.18 399.938 322.617 400.977V410H319.77V397.32H322.453ZM338.379 407.961C339.09 407.961 339.68 407.754 340.148 407.34C340.617 406.926 340.867 406.414 340.898 405.805H343.582C343.551 406.594 343.305 407.332 342.844 408.02C342.383 408.699 341.758 409.238 340.969 409.637C340.18 410.035 339.328 410.234 338.414 410.234C336.641 410.234 335.234 409.66 334.195 408.512C333.156 407.363 332.637 405.777 332.637 403.754V403.461C332.637 401.531 333.152 399.988 334.184 398.832C335.215 397.668 336.621 397.086 338.402 397.086C339.91 397.086 341.137 397.527 342.082 398.41C343.035 399.285 343.535 400.438 343.582 401.867H340.898C340.867 401.141 340.617 400.543 340.148 400.074C339.688 399.605 339.098 399.371 338.379 399.371C337.457 399.371 336.746 399.707 336.246 400.379C335.746 401.043 335.492 402.055 335.484 403.414V403.871C335.484 405.246 335.73 406.273 336.223 406.953C336.723 407.625 337.441 407.961 338.379 407.961ZM353.309 410C353.184 409.758 353.074 409.363 352.98 408.816C352.074 409.762 350.965 410.234 349.652 410.234C348.379 410.234 347.34 409.871 346.535 409.145C345.73 408.418 345.328 407.52 345.328 406.449C345.328 405.098 345.828 404.062 346.828 403.344C347.836 402.617 349.273 402.254 351.141 402.254H352.887V401.422C352.887 400.766 352.703 400.242 352.336 399.852C351.969 399.453 351.41 399.254 350.66 399.254C350.012 399.254 349.48 399.418 349.066 399.746C348.652 400.066 348.445 400.477 348.445 400.977H345.598C345.598 400.281 345.828 399.633 346.289 399.031C346.75 398.422 347.375 397.945 348.164 397.602C348.961 397.258 349.848 397.086 350.824 397.086C352.309 397.086 353.492 397.461 354.375 398.211C355.258 398.953 355.711 400 355.734 401.352V407.07C355.734 408.211 355.895 409.121 356.215 409.801V410H353.309ZM350.18 407.949C350.742 407.949 351.27 407.812 351.762 407.539C352.262 407.266 352.637 406.898 352.887 406.438V404.047H351.352C350.297 404.047 349.504 404.23 348.973 404.598C348.441 404.965 348.176 405.484 348.176 406.156C348.176 406.703 348.355 407.141 348.715 407.469C349.082 407.789 349.57 407.949 350.18 407.949ZM369.164 406.391L371.848 397.32H374.789L370.395 410H367.922L363.492 397.32H366.445L369.164 406.391ZM379.605 410H376.758V397.32H379.605V410ZM376.582 394.027C376.582 393.59 376.719 393.227 376.992 392.938C377.273 392.648 377.672 392.504 378.188 392.504C378.703 392.504 379.102 392.648 379.383 392.938C379.664 393.227 379.805 393.59 379.805 394.027C379.805 394.457 379.664 394.816 379.383 395.105C379.102 395.387 378.703 395.527 378.188 395.527C377.672 395.527 377.273 395.387 376.992 395.105C376.719 394.816 376.582 394.457 376.582 394.027ZM390.398 408.758C389.562 409.742 388.375 410.234 386.836 410.234C385.461 410.234 384.418 409.832 383.707 409.027C383.004 408.223 382.652 407.059 382.652 405.535V397.32H385.5V405.5C385.5 407.109 386.168 407.914 387.504 407.914C388.887 407.914 389.82 407.418 390.305 406.426V397.32H393.152V410H390.469L390.398 408.758ZM405.059 410H402.211V397.32H405.059V410ZM402.035 394.027C402.035 393.59 402.172 393.227 402.445 392.938C402.727 392.648 403.125 392.504 403.641 392.504C404.156 392.504 404.555 392.648 404.836 392.938C405.117 393.227 405.258 393.59 405.258 394.027C405.258 394.457 405.117 394.816 404.836 395.105C404.555 395.387 404.156 395.527 403.641 395.527C403.125 395.527 402.727 395.387 402.445 395.105C402.172 394.816 402.035 394.457 402.035 394.027ZM407.672 403.566C407.672 401.598 408.133 400.027 409.055 398.855C409.984 397.676 411.215 397.086 412.746 397.086C414.191 397.086 415.328 397.59 416.156 398.598L416.285 397.32H418.852V409.613C418.852 411.277 418.332 412.59 417.293 413.551C416.262 414.512 414.867 414.992 413.109 414.992C412.18 414.992 411.27 414.797 410.379 414.406C409.496 414.023 408.824 413.52 408.363 412.895L409.711 411.184C410.586 412.223 411.664 412.742 412.945 412.742C413.891 412.742 414.637 412.484 415.184 411.969C415.73 411.461 416.004 410.711 416.004 409.719V408.863C415.184 409.777 414.09 410.234 412.723 410.234C411.238 410.234 410.023 409.645 409.078 408.465C408.141 407.285 407.672 405.652 407.672 403.566ZM410.508 403.812C410.508 405.086 410.766 406.09 411.281 406.824C411.805 407.551 412.527 407.914 413.449 407.914C414.598 407.914 415.449 407.422 416.004 406.438V400.859C415.465 399.898 414.621 399.418 413.473 399.418C412.535 399.418 411.805 399.789 411.281 400.531C410.766 401.273 410.508 402.367 410.508 403.812ZM429.469 408.758C428.633 409.742 427.445 410.234 425.906 410.234C424.531 410.234 423.488 409.832 422.777 409.027C422.074 408.223 421.723 407.059 421.723 405.535V397.32H424.57V405.5C424.57 407.109 425.238 407.914 426.574 407.914C427.957 407.914 428.891 407.418 429.375 406.426V397.32H432.223V410H429.539L429.469 408.758ZM442.699 410C442.574 409.758 442.465 409.363 442.371 408.816C441.465 409.762 440.355 410.234 439.043 410.234C437.77 410.234 436.73 409.871 435.926 409.145C435.121 408.418 434.719 407.52 434.719 406.449C434.719 405.098 435.219 404.062 436.219 403.344C437.227 402.617 438.664 402.254 440.531 402.254H442.277V401.422C442.277 400.766 442.094 400.242 441.727 399.852C441.359 399.453 440.801 399.254 440.051 399.254C439.402 399.254 438.871 399.418 438.457 399.746C438.043 400.066 437.836 400.477 437.836 400.977H434.988C434.988 400.281 435.219 399.633 435.68 399.031C436.141 398.422 436.766 397.945 437.555 397.602C438.352 397.258 439.238 397.086 440.215 397.086C441.699 397.086 442.883 397.461 443.766 398.211C444.648 398.953 445.102 400 445.125 401.352V407.07C445.125 408.211 445.285 409.121 445.605 409.801V410H442.699ZM439.57 407.949C440.133 407.949 440.66 407.812 441.152 407.539C441.652 407.266 442.027 406.898 442.277 406.438V404.047H440.742C439.688 404.047 438.895 404.23 438.363 404.598C437.832 404.965 437.566 405.484 437.566 406.156C437.566 406.703 437.746 407.141 438.105 407.469C438.473 407.789 438.961 407.949 439.57 407.949ZM451.137 410H448.289V392H451.137V410ZM457.266 404.973H454.816L454.547 392.938H457.547L457.266 404.973ZM454.465 408.652C454.465 408.207 454.609 407.84 454.898 407.551C455.188 407.254 455.582 407.105 456.082 407.105C456.582 407.105 456.977 407.254 457.266 407.551C457.555 407.84 457.699 408.207 457.699 408.652C457.699 409.082 457.559 409.441 457.277 409.73C456.996 410.02 456.598 410.164 456.082 410.164C455.566 410.164 455.168 410.02 454.887 409.73C454.605 409.441 454.465 409.082 454.465 408.652Z" fill="#E4E4E4"/>
<g filter="url(#filter6_d)">
<path d="M174.924 321.24V330.84H198.284V345.08H174.924V363H156.044V307H201.564V321.24H174.924ZM231.529 348.92H226.409V363H207.529V307H234.489C239.662 307 244.169 307.853 248.009 309.56C251.849 311.267 254.809 313.72 256.889 316.92C258.969 320.12 260.009 323.853 260.009 328.12C260.009 332.12 259.102 335.613 257.289 338.6C255.475 341.587 252.862 343.96 249.449 345.72L261.209 363H241.049L231.529 348.92ZM240.969 328.12C240.969 326.04 240.329 324.44 239.049 323.32C237.769 322.147 235.849 321.56 233.289 321.56H226.409V334.68H233.289C235.849 334.68 237.769 334.12 239.049 333C240.329 331.827 240.969 330.2 240.969 328.12ZM267.138 307H286.018V363H267.138V307ZM295.107 307H322.707C328.947 307 334.44 308.147 339.187 310.44C343.987 312.68 347.694 315.907 350.307 320.12C352.974 324.333 354.307 329.293 354.307 335C354.307 340.707 352.974 345.667 350.307 349.88C347.694 354.093 343.987 357.347 339.187 359.64C334.44 361.88 328.947 363 322.707 363H295.107V307ZM321.907 348.28C325.96 348.28 329.187 347.133 331.587 344.84C334.04 342.493 335.267 339.213 335.267 335C335.267 330.787 334.04 327.533 331.587 325.24C329.187 322.893 325.96 321.72 321.907 321.72H313.987V348.28H321.907ZM398.579 353.24H377.299L373.539 363H354.339L378.819 307H397.379L421.859 363H402.339L398.579 353.24ZM393.379 339.64L387.939 325.56L382.499 339.64H393.379ZM454.559 342.68V363H435.679V342.44L414.559 307H434.479L445.919 326.36L457.439 307H475.679L454.559 342.68Z" fill="#FD014C"/>
<path d="M213.657 253.72C216.964 254.947 219.524 256.733 221.337 259.08C223.15 261.427 224.057 264.253 224.057 267.56C224.057 272.467 222.03 276.28 217.977 279C213.924 281.667 208.057 283 200.377 283H168.857V227H198.777C206.244 227 211.87 228.333 215.657 231C219.497 233.667 221.417 237.213 221.417 241.64C221.417 244.253 220.75 246.6 219.417 248.68C218.137 250.76 216.217 252.44 213.657 253.72ZM187.417 240.2V248.52H196.217C200.324 248.52 202.377 247.133 202.377 244.36C202.377 241.587 200.324 240.2 196.217 240.2H187.417ZM198.777 269.8C202.937 269.8 205.017 268.333 205.017 265.4C205.017 262.467 202.937 261 198.777 261H187.417V269.8H198.777ZM230.732 227H249.612V268.36H274.892V283H230.732V227ZM319.048 273.24H297.768L294.008 283H274.808L299.288 227H317.848L342.328 283H322.808L319.048 273.24ZM313.848 259.64L308.408 245.56L302.968 259.64H313.848ZM373.52 284.28C367.6 284.28 362.267 283.053 357.52 280.6C352.773 278.093 349.04 274.627 346.32 270.2C343.653 265.72 342.32 260.653 342.32 255C342.32 249.347 343.653 244.307 346.32 239.88C349.04 235.4 352.773 231.933 357.52 229.48C362.267 226.973 367.6 225.72 373.52 225.72C378.96 225.72 383.813 226.68 388.08 228.6C392.347 230.52 395.867 233.293 398.64 236.92L386.72 247.56C383.253 243.187 379.173 241 374.48 241C370.533 241 367.36 242.28 364.96 244.84C362.56 247.347 361.36 250.733 361.36 255C361.36 259.267 362.56 262.68 364.96 265.24C367.36 267.747 370.533 269 374.48 269C379.173 269 383.253 266.813 386.72 262.44L398.64 273.08C395.867 276.707 392.347 279.48 388.08 281.4C383.813 283.32 378.96 284.28 373.52 284.28ZM426.891 264.44L422.651 269.16V283H404.091V227H422.651V247.32L441.051 227H461.611L439.211 251.64L462.731 283H440.891L426.891 264.44Z" fill="#31F674"/>
</g>
<defs>
<filter id="filter0_d" x="0" y="194" width="113" height="142" filterUnits="userSpaceOnUse" color-interpolation-filters="sRGB">
<feFlood flood-opacity="0" result="BackgroundImageFix"/>
<feColorMatrix in="SourceAlpha" type="matrix" values="0 0 0 0 0 0 0 0 0 0 0 0 0 0 0 0 0 0 127 0"/>
<feOffset dy="4"/>
<feGaussianBlur stdDeviation="2"/>
<feColorMatrix type="matrix" values="0 0 0 0 0 0 0 0 0 0 0 0 0 0 0 0 0 0 0.25 0"/>
<feBlend mode="normal" in2="BackgroundImageFix" result="effect1_dropShadow"/>
<feBlend mode="normal" in="SourceGraphic" in2="effect1_dropShadow" result="shape"/>
</filter>
<filter id="filter1_d" x="189" y="474" width="146.346" height="118.606" filterUnits="userSpaceOnUse" color-interpolation-filters="sRGB">
<feFlood flood-opacity="0" result="BackgroundImageFix"/>
<feColorMatrix in="SourceAlpha" type="matrix" values="0 0 0 0 0 0 0 0 0 0 0 0 0 0 0 0 0 0 127 0"/>
<feOffset dy="4"/>
<feGaussianBlur stdDeviation="2"/>
<feColorMatrix type="matrix" values="0 0 0 0 0 0 0 0 0 0 0 0 0 0 0 0 0 0 0.25 0"/>
<feBlend mode="normal" in2="BackgroundImageFix" result="effect1_dropShadow"/>
<feBlend mode="normal" in="SourceGraphic" in2="effect1_dropShadow" result="shape"/>
</filter>
<filter id="filter2_d" x="479" y="276" width="131.468" height="130.827" filterUnits="userSpaceOnUse" color-interpolation-filters="sRGB">
<feFlood flood-opacity="0" result="BackgroundImageFix"/>
<feColorMatrix in="SourceAlpha" type="matrix" values="0 0 0 0 0 0 0 0 0 0 0 0 0 0 0 0 0 0 127 0"/>
<feOffset dy="4"/>
<feGaussianBlur stdDeviation="2"/>
<feColorMatrix type="matrix" values="0 0 0 0 0 0 0 0 0 0 0 0 0 0 0 0 0 0 0.25 0"/>
<feBlend mode="normal" in2="BackgroundImageFix" result="effect1_dropShadow"/>
<feBlend mode="normal" in="SourceGraphic" in2="effect1_dropShadow" result="shape"/>
</filter>
<filter id="filter3_d" x="461" y="66.9999" width="164.61" height="144.104" filterUnits="userSpaceOnUse" color-interpolation-filters="sRGB">
<feFlood flood-opacity="0" result="BackgroundImageFix"/>
<feColorMatrix in="SourceAlpha" type="matrix" values="0 0 0 0 0 0 0 0 0 0 0 0 0 0 0 0 0 0 127 0"/>
<feOffset dy="4"/>
<feGaussianBlur stdDeviation="2"/>
<feColorMatrix type="matrix" values="0 0 0 0 0 0 0 0 0 0 0 0 0 0 0 0 0 0 0.25 0"/>
<feBlend mode="normal" in2="BackgroundImageFix" result="effect1_dropShadow"/>
<feBlend mode="normal" in="SourceGraphic" in2="effect1_dropShadow" result="shape"/>
</filter>
<filter id="filter4_d" x="117.853" y="0.000183105" width="111.048" height="106.145" filterUnits="userSpaceOnUse" color-interpolation-filters="sRGB">
<feFlood flood-opacity="0" result="BackgroundImageFix"/>
<feColorMatrix in="SourceAlpha" type="matrix" values="0 0 0 0 0 0 0 0 0 0 0 0 0 0 0 0 0 0 127 0"/>
<feOffset dy="4"/>
<feGaussianBlur stdDeviation="2"/>
<feColorMatrix type="matrix" values="0 0 0 0 0 0 0 0 0 0 0 0 0 0 0 0 0 0 0.25 0"/>
<feBlend mode="normal" in2="BackgroundImageFix" result="effect1_dropShadow"/>
<feBlend mode="normal" in="SourceGraphic" in2="effect1_dropShadow" result="shape"/>
</filter>
<filter id="filter5_d" x="290" y="85.9999" width="73.6574" height="98.2074" filterUnits="userSpaceOnUse" color-interpolation-filters="sRGB">
<feFlood flood-opacity="0" result="BackgroundImageFix"/>
<feColorMatrix in="SourceAlpha" type="matrix" values="0 0 0 0 0 0 0 0 0 0 0 0 0 0 0 0 0 0 127 0"/>
<feOffset dy="4"/>
<feGaussianBlur stdDeviation="2"/>
<feColorMatrix type="matrix" values="0 0 0 0 0 0 0 0 0 0 0 0 0 0 0 0 0 0 0.25 0"/>
<feBlend mode="normal" in2="BackgroundImageFix" result="effect1_dropShadow"/>
<feBlend mode="normal" in="SourceGraphic" in2="effect1_dropShadow" result="shape"/>
</filter>
<filter id="filter6_d" x="151.044" y="222.72" width="329.634" height="147.28" filterUnits="userSpaceOnUse" color-interpolation-filters="sRGB">
<feFlood flood-opacity="0" result="BackgroundImageFix"/>
<feColorMatrix in="SourceAlpha" type="matrix" values="0 0 0 0 0 0 0 0 0 0 0 0 0 0 0 0 0 0 127 0"/>
<feOffset dy="2"/>
<feGaussianBlur stdDeviation="2.5"/>
<feColorMatrix type="matrix" values="0 0 0 0 0 0 0 0 0 0 0 0 0 0 0 0 0 0 0.42 0"/>
<feBlend mode="normal" in2="BackgroundImageFix" result="effect1_dropShadow"/>
<feBlend mode="normal" in="SourceGraphic" in2="effect1_dropShadow" result="shape"/>
</filter>
</defs>
</svg>
